HIERARCHY
ROOT Hips
{
  OFFSET 373.837 88.1643 177.628
  CHANNELS 6 Xposition Yposition Zposition Zrotation Xrotation Yrotation
  JOINT RightUpLeg
  {
    OFFSET -9.27602 -1.55371 -0.0617006
    CHANNELS 3 Zrotation Xrotation Yrotation
    JOINT RightLeg
    {
      OFFSET 0.0569767 -41.8713 0.0644562
      CHANNELS 3 Zrotation Xrotation Yrotation
      JOINT RightFoot
      {
        OFFSET -0.463049 -43.0064 -0.0336586
        CHANNELS 3 Zrotation Xrotation Yrotation
        End Site
        {
          OFFSET 0 -7.69 17.5
        }
      }
    }
  }
  JOINT LeftUpLeg
  {
    OFFSET 9.29312 -1.63815 0.0236341
    CHANNELS 3 Zrotation Xrotation Yrotation
    JOINT LeftLeg
    {
      OFFSET 0.0670365 -41.8776 -0.0578197
      CHANNELS 3 Zrotation Xrotation Yrotation
      JOINT LeftFoot
      {
        OFFSET 0.591956 -40.8352 0.210268
        CHANNELS 3 Zrotation Xrotation Yrotation
        End Site
        {
          OFFSET 0 -7.69 17.5
        }
      }
    }
  }
  JOINT Spine
  {
    OFFSET 0.0229142 14.2949 0.0394214
    CHANNELS 3 Zrotation Xrotation Yrotation
    JOINT Spine1
    {
      OFFSET 0.0328969 9.71943 0.0194292
      CHANNELS 3 Zrotation Xrotation Yrotation
      JOINT Spine2
      {
        OFFSET 0.0292955 10.1244 -0.00440821
        CHANNELS 3 Zrotation Xrotation Yrotation
        JOINT Spine3
        {
          OFFSET 0.024556 9.71184 0.0101567
          CHANNELS 3 Zrotation Xrotation Yrotation
          JOINT Neck
          {
            OFFSET 0.152325 10.3757 0.0664015
            CHANNELS 3 Zrotation Xrotation Yrotation
            JOINT Head
            {
              OFFSET 0.134553 9.4858 0.0499874
              CHANNELS 3 Zrotation Xrotation Yrotation
              End Site
              {
                OFFSET 0 15.95 0
              }
            }
          }
          JOINT RightShoulder
          {
            OFFSET -3.19519 6.89024 -0.0330231
            CHANNELS 3 Zrotation Xrotation Yrotation
            JOINT RightArm
            {
              OFFSET -12.6524 0.0927817 0.0603028
              CHANNELS 3 Zrotation Xrotation Yrotation
              JOINT RightForeArm
              {
                OFFSET -26.4983 -0.141459 0.202928
                CHANNELS 3 Zrotation Xrotation Yrotation
                JOINT RightHand
                {
                  OFFSET -25.9883 -0.0240172 0.0141731
                  CHANNELS 3 Zrotation Xrotation Yrotation
                  JOINT RightHandThumb1
                  {
                    OFFSET -2.48905 0.190105 3.12053
                    CHANNELS 3 Zrotation Xrotation Yrotation
                    JOINT RightHandThumb2
                    {
                      OFFSET -3.68274 0 0
                      CHANNELS 3 Zrotation Xrotation Yrotation
                      JOINT RightHandThumb3
                      {
                        OFFSET -2.55832 0 0
                        CHANNELS 3 Zrotation Xrotation Yrotation
                        End Site
                        {
                          OFFSET -2.194 0 0
                        }
                      }
                    }
                  }
                  JOINT RightInHandIndex
                  {
                    OFFSET -3.22368 0.508421 1.97842
                    CHANNELS 3 Zrotation Xrotation Yrotation
                    JOINT RightHandIndex1
                    {
                      OFFSET -5.21684 -0.091368 0.999158
                      CHANNELS 3 Zrotation Xrotation Yrotation
                      JOINT RightHandIndex2
                      {
                        OFFSET -3.61937 0 0
                        CHANNELS 3 Zrotation Xrotation Yrotation
                        JOINT RightHandIndex3
                        {
                          OFFSET -2.0521 0 0
                          CHANNELS 3 Zrotation Xrotation Yrotation
                          End Site
                          {
                            OFFSET -1.805 0 0
                          }
                        }
                      }
                    }
                  }
                  JOINT RightInHandMiddle
                  {
                    OFFSET -3.38211 0.517263 0.756737
                    CHANNELS 3 Zrotation Xrotation Yrotation
                    JOINT RightHandMiddle1
                    {
                      OFFSET -5.17411 -0.084 0.313895
                      CHANNELS 3 Zrotation Xrotation Yrotation
                      JOINT RightHandMiddle2
                      {
                        OFFSET -3.94947 0 0
                        CHANNELS 3 Zrotation Xrotation Yrotation
                        JOINT RightHandMiddle3
                        {
                          OFFSET -2.47579 0 0
                          CHANNELS 3 Zrotation Xrotation Yrotation
                          End Site
                          {
                            OFFSET -1.975 0 0
                          }
                        }
                      }
                    }
                  }
                  JOINT RightInHandRing
                  {
                    OFFSET -3.36516 0.537895 -0.128947
                    CHANNELS 3 Zrotation Xrotation Yrotation
                    JOINT RightHandRing1
                    {
                      OFFSET -4.63474 -0.022105 -0.478947
                      CHANNELS 3 Zrotation Xrotation Yrotation
                      JOINT RightHandRing2
                      {
                        OFFSET -3.44238 0 0
                        CHANNELS 3 Zrotation Xrotation Yrotation
                        JOINT RightHandRing3
                        {
                          OFFSET -2.3881 0 0
                          CHANNELS 3 Zrotation Xrotation Yrotation
                          End Site
                          {
                            OFFSET -1.857 0 0
                          }
                        }
                      }
                    }
                  }
                  JOINT RightInHandPinky
                  {
                    OFFSET -3.16105 0.469368 -1.20179
                    CHANNELS 3 Zrotation Xrotation Yrotation
                    JOINT RightHandPinky1
                    {
                      OFFSET -4.14105 -0.022105 -1.09053
                      CHANNELS 3 Zrotation Xrotation Yrotation
                      JOINT RightHandPinky2
                      {
                        OFFSET -2.75653 0 0
                        CHANNELS 3 Zrotation Xrotation Yrotation
                        JOINT RightHandPinky3
                        {
                          OFFSET -1.74189 0 0
                          CHANNELS 3 Zrotation Xrotation Yrotation
                          End Site
                          {
                            OFFSET -1.645 0 0
                          }
                        }
                      }
                    }
                  }
                }
              }
            }
          }
          JOINT LeftShoulder
          {
            OFFSET 3.28609 6.87948 -0.0751467
            CHANNELS 3 Zrotation Xrotation Yrotation
            JOINT LeftArm
            {
              OFFSET 12.831 -0.0663252 -0.1321
              CHANNELS 3 Zrotation Xrotation Yrotation
              JOINT LeftForeArm
              {
                OFFSET 26.5106 -0.082189 -0.0903645
                CHANNELS 3 Zrotation Xrotation Yrotation
                JOINT LeftHand
                {
                  OFFSET 25.9965 -0.0307163 -0.0535747
                  CHANNELS 3 Zrotation Xrotation Yrotation
                  JOINT LeftHandThumb1
                  {
                    OFFSET 2.48905 0.190105 3.12053
                    CHANNELS 3 Zrotation Xrotation Yrotation
                    JOINT LeftHandThumb2
                    {
                      OFFSET 3.68274 0 0
                      CHANNELS 3 Zrotation Xrotation Yrotation
                      JOINT LeftHandThumb3
                      {
                        OFFSET 2.55832 0 0
                        CHANNELS 3 Zrotation Xrotation Yrotation
                        End Site
                        {
                          OFFSET 2.194 0 0
                        }
                      }
                    }
                  }
                  JOINT LeftInHandIndex
                  {
                    OFFSET 3.22368 0.508421 1.97842
                    CHANNELS 3 Zrotation Xrotation Yrotation
                    JOINT LeftHandIndex1
                    {
                      OFFSET 5.21684 -0.091368 0.999158
                      CHANNELS 3 Zrotation Xrotation Yrotation
                      JOINT LeftHandIndex2
                      {
                        OFFSET 3.61937 0 0
                        CHANNELS 3 Zrotation Xrotation Yrotation
                        JOINT LeftHandIndex3
                        {
                          OFFSET 2.0521 0 0
                          CHANNELS 3 Zrotation Xrotation Yrotation
                          End Site
                          {
                            OFFSET 1.805 0 0
                          }
                        }
                      }
                    }
                  }
                  JOINT LeftInHandMiddle
                  {
                    OFFSET 3.38211 0.517263 0.756737
                    CHANNELS 3 Zrotation Xrotation Yrotation
                    JOINT LeftHandMiddle1
                    {
                      OFFSET 5.17411 -0.084 0.313895
                      CHANNELS 3 Zrotation Xrotation Yrotation
                      JOINT LeftHandMiddle2
                      {
                        OFFSET 3.94947 0 0
                        CHANNELS 3 Zrotation Xrotation Yrotation
                        JOINT LeftHandMiddle3
                        {
                          OFFSET 2.47579 0 0
                          CHANNELS 3 Zrotation Xrotation Yrotation
                          End Site
                          {
                            OFFSET 1.975 0 0
                          }
                        }
                      }
                    }
                  }
                  JOINT LeftInHandRing
                  {
                    OFFSET 3.36516 0.537895 -0.128947
                    CHANNELS 3 Zrotation Xrotation Yrotation
                    JOINT LeftHandRing1
                    {
                      OFFSET 4.63474 -0.022105 -0.478947
                      CHANNELS 3 Zrotation Xrotation Yrotation
                      JOINT LeftHandRing2
                      {
                        OFFSET 3.44238 0 0
                        CHANNELS 3 Zrotation Xrotation Yrotation
                        JOINT LeftHandRing3
                        {
                          OFFSET 2.3881 0 0
                          CHANNELS 3 Zrotation Xrotation Yrotation
                          End Site
                          {
                            OFFSET 1.857 0 0
                          }
                        }
                      }
                    }
                  }
                  JOINT LeftInHandPinky
                  {
                    OFFSET 3.16105 0.469368 -1.20179
                    CHANNELS 3 Zrotation Xrotation Yrotation
                    JOINT LeftHandPinky1
                    {
                      OFFSET 4.14105 -0.022105 -1.09053
                      CHANNELS 3 Zrotation Xrotation Yrotation
                      JOINT LeftHandPinky2
                      {
                        OFFSET 2.75653 0 0
                        CHANNELS 3 Zrotation Xrotation Yrotation
                        JOINT LeftHandPinky3
                        {
                          OFFSET 1.74189 0 0
                          CHANNELS 3 Zrotation Xrotation Yrotation
                          End Site
                          {
                            OFFSET 1.645 0 0
                          }
                        }
                      }
                    }
                  }
                }
              }
            }
          }
        }
      }
    }
  }
}
MOTION
Frames: 3
Frame Time: 0.00833333
1.499998317969450454e+02 -4.679790924911118963e-05 -5.247080012216692822e-04 -4.159739025472108335e-04 -1.383607027252066078e-03 8.054484570719668132e-04 -6.523458769946223522e-04 -3.034150600202500762e-04 4.197842369525139027e-03 9.719450583434970179e-04 4.793018605920022399e-04 -4.318710608057487951e-03 2.754156844042072354e-04 3.466127995926496274e-04 1.244671178341302971e-04 -9.509847545785039434e-04 1.163447069913497479e-03 -1.760618982720887178e-04 1.446021829063463306e-03 -4.909684905863522311e-03 3.692673552227868517e-03 -1.655328981420242131e-03 5.825916236583910876e-03 -4.098947597784349285e-03 -8.066109272667021032e-03 3.863931248973131310e-03 1.265661089799891004e-02 -1.825289073334473381e-03 1.420689355450819105e-03 2.963425379993995037e-03 -2.730819475447282887e-03 2.259098979540851392e-03 4.551232301276224995e-03 -3.213973547883676972e-04 1.714794861872116738e-06 1.370695001954925487e-03 -3.294912854089994468e-04 8.263682538362439621e-06 1.419434402820894496e-03 6.802028546058261869e-03 -2.095605776509745343e-03 -1.452459174788585383e-02 -1.016081485022899073e-03 -1.389545166029191973e-02 5.855944530003072412e-02 7.968271700201765353e-03 -6.888327229027595144e-02 -2.564884481483584860e-02 -3.882309464058622496e-04 2.283708376646351179e-02 4.074988205857348403e-03 -9.141395211668616738e-03 6.085420345818795713e-03 -3.933226488536466225e-02 0.000000000000000000e+00 0.000000000000000000e+00 0.000000000000000000e+00 -3.023321115284287115e-15 -1.352975026396827382e-15 0.000000000000000000e+00 -4.340323634488385470e-15 -1.679212883157057235e-15 0.000000000000000000e+00 5.695808677287777874e-15 -5.654477160021306985e-16 -1.629649122977823231e-15 0.000000000000000000e+00 0.000000000000000000e+00 0.000000000000000000e+00 0.000000000000000000e+00 -4.482417487097385147e-15 -1.137392748978585372e-14 0.000000000000000000e+00 -7.540144873884877464e-15 -4.167474825708982992e-14 5.695808677287777874e-15 -5.654477160021306985e-16 -1.629649122977823231e-15 0.000000000000000000e+00 -4.483083221776049804e-15 -7.077156765133671492e-15 0.000000000000000000e+00 2.810832986840524329e-15 -1.228074853995310388e-14 0.000000000000000000e+00 -5.221737068429434399e-16 2.108814034000412286e-14 5.695808677287777874e-15 -5.654477160021306985e-16 -1.629649122977823231e-15 0.000000000000000000e+00 0.000000000000000000e+00 0.000000000000000000e+00 0.000000000000000000e+00 -9.278248007444804594e-15 -1.108889667115068912e-14 0.000000000000000000e+00 -2.651169081402306572e-15 -3.474931955573533716e-15 5.695808677287777874e-15 -5.654477160021306985e-16 -1.629649122977823231e-15 0.000000000000000000e+00 0.000000000000000000e+00 0.000000000000000000e+00 0.000000000000000000e+00 -8.597644614718335806e-16 -8.865872302022410016e-15 0.000000000000000000e+00 -3.422838321876187854e-15 -5.864918272612520526e-15 1.376934651766105293e-03 -8.199968932628804233e-03 -2.725967234862061803e-03 1.842707355724732346e-04 3.945845737886242467e-03 -1.563984423426893408e-03 5.834568532540866485e-03 -1.733094870774716523e-02 7.930748918169123682e-03 4.667765040268345017e-03 8.540579744447893487e-03 1.511419696059069021e-02 0.000000000000000000e+00 0.000000000000000000e+00 0.000000000000000000e+00 -2.401851336737462915e-15 -3.363662782107619210e-15 0.000000000000000000e+00 -8.264517047361818762e-17 1.748149082642055888e-15 0.000000000000000000e+00 -2.096350045666984880e-15 1.091561328922101138e-15 -3.468433505885079549e-16 0.000000000000000000e+00 0.000000000000000000e+00 0.000000000000000000e+00 0.000000000000000000e+00 2.037711176781361834e-15 -9.307192346018782353e-15 0.000000000000000000e+00 3.115130650971743394e-15 -1.052468639800279913e-14 -2.096350045666984880e-15 1.091561328922101138e-15 -3.468433505885079549e-16 0.000000000000000000e+00 3.286557333932399422e-15 -3.535717859610089507e-15 0.000000000000000000e+00 1.025188848464873939e-17 -4.871962677296193347e-15 0.000000000000000000e+00 -2.797761239475999342e-16 -6.578882375535009105e-15 -2.096350045666984880e-15 1.091561328922101138e-15 -3.468433505885079549e-16 0.000000000000000000e+00 0.000000000000000000e+00 0.000000000000000000e+00 0.000000000000000000e+00 1.068926033896294966e-15 -9.545816159884258400e-15 0.000000000000000000e+00 1.062036940097425067e-15 -8.279756625644078976e-15 -2.096350045666984880e-15 1.091561328922101138e-15 -3.468433505885079549e-16 0.000000000000000000e+00 0.000000000000000000e+00 0.000000000000000000e+00 0.000000000000000000e+00 3.414578323434343291e-15 -3.617803461266965741e-15 0.000000000000000000e+00 -3.118082895552033369e-16 -7.496940914816804932e-15
1.500002076700083080e+02 4.937183087304656496e-05 6.503323190326622608e-04 9.890032676966226989e-04 3.386331613896400965e-03 3.848534831212727797e-03 -6.727722769782330976e-03 2.552186158228188814e-04 -1.674954643611346189e-02 -1.525864979686847095e-03 -1.898348009725897123e-04 6.603307864552945827e-03 6.156123866309608358e-05 -4.685423249001917801e-04 7.059040825931821132e-05 -1.655210362717313708e-03 -4.058543104189970413e-03 -5.437422937121396890e-03 -7.278673068467017906e-04 3.562796627465674923e-03 -2.510733814591739783e-03 9.918531637966179846e-04 -3.957239286798703258e-03 2.380055603070497031e-03 1.383956197615333894e-02 -5.577038732728927320e-03 -2.447696632326174307e-02 3.038306765975805953e-03 -2.022081509298224479e-03 -5.793093807546632890e-03 4.671142596021258045e-03 -3.138843064272770367e-03 -9.057713299870134155e-03 -2.722880532739381369e-04 -4.487349792417580888e-06 7.406942473354474722e-05 -2.705035494988680743e-04 -3.419281527640502634e-06 4.870920512072559152e-05 -1.054933240785529622e-02 3.851874711154940414e-03 2.824166575359547335e-02 -3.050617476512466463e-03 1.609645089618737951e-02 -3.714512463242470447e-02 -1.304055189308752413e-03 5.174813221826608800e-02 1.556736967597810439e-02 9.339773604209107224e-03 -1.163681063342024511e-03 1.134367487847945258e-03 5.231318368229700630e-03 -1.067744514000549400e-03 2.127594567986416593e-02 0.000000000000000000e+00 0.000000000000000000e+00 0.000000000000000000e+00 2.297339694272931387e-15 -1.951203854351432514e-17 0.000000000000000000e+00 1.866094525957738168e-15 1.611080221673668941e-16 0.000000000000000000e+00 -4.544359430773060469e-15 3.182124041384048459e-16 9.042731108264081515e-16 0.000000000000000000e+00 0.000000000000000000e+00 0.000000000000000000e+00 0.000000000000000000e+00 2.166499488941691124e-15 7.210345809940448173e-15 0.000000000000000000e+00 -5.317229898029793701e-16 -9.114422596809971759e-15 -4.544359430773060469e-15 3.182124041384048459e-16 9.042731108264081515e-16 0.000000000000000000e+00 3.890101595396458173e-15 5.958853216123458228e-15 0.000000000000000000e+00 -2.223434653333783252e-15 7.611898706808728615e-15 0.000000000000000000e+00 -4.976787030158609853e-15 -4.419011655521073405e-14 -4.544359430773060469e-15 3.182124041384048459e-16 9.042731108264081515e-16 0.000000000000000000e+00 0.000000000000000000e+00 0.000000000000000000e+00 0.000000000000000000e+00 6.995075389833350081e-15 9.096744295736403622e-15 0.000000000000000000e+00 -1.096718239082072893e-15 -1.716775671076639033e-14 -4.544359430773060469e-15 3.182124041384048459e-16 9.042731108264081515e-16 0.000000000000000000e+00 0.000000000000000000e+00 0.000000000000000000e+00 0.000000000000000000e+00 1.150288709971481926e-15 4.650771187630616256e-15 0.000000000000000000e+00 2.377674913947460899e-15 -3.959139453915968621e-15 -6.299154309478679180e-03 1.617685018347737522e-02 2.002454261681107725e-02 -7.478916066022201110e-03 -1.136996703668362307e-02 1.344560624221267237e-02 -1.867831289863933555e-02 1.515903757253895569e-02 -1.945115858979497986e-02 -4.363574912046325888e-03 -3.514401068739424205e-02 -1.103871356494893520e-02 0.000000000000000000e+00 0.000000000000000000e+00 0.000000000000000000e+00 1.201168049226777777e-15 3.715127636592050399e-15 0.000000000000000000e+00 -1.793931440913204002e-15 -6.700180190800585654e-16 0.000000000000000000e+00 1.960372706618881268e-15 -6.328169423747077412e-16 2.453058440942033783e-16 0.000000000000000000e+00 0.000000000000000000e+00 0.000000000000000000e+00 0.000000000000000000e+00 -1.386974761098006486e-15 7.466413986947624846e-15 0.000000000000000000e+00 -2.357862906800091729e-15 7.586284805083942499e-15 1.960372706618881268e-15 -6.328169423747077412e-16 2.453058440942033783e-16 0.000000000000000000e+00 -2.924591819327027621e-15 2.735397605272909461e-15 0.000000000000000000e+00 3.558310676497883276e-16 3.858271693078771832e-15 0.000000000000000000e+00 -1.077030926226577661e-16 4.257997474323919213e-15 1.960372706618881268e-15 -6.328169423747077412e-16 2.453058440942033783e-16 0.000000000000000000e+00 0.000000000000000000e+00 0.000000000000000000e+00 0.000000000000000000e+00 -4.456814512747982481e-16 7.011542217747729474e-15 0.000000000000000000e+00 -4.211207372642516725e-16 6.399629568600990978e-15 1.960372706618881268e-15 -6.328169423747077412e-16 2.453058440942033783e-16 0.000000000000000000e+00 0.000000000000000000e+00 0.000000000000000000e+00 0.000000000000000000e+00 -2.384613894922223441e-15 1.945049736925204360e-15 0.000000000000000000e+00 8.506976552214198718e-16 5.682487640632738427e-15
1.499997002755584390e+02 -2.098294611672497326e-05 -8.977487577994148777e-04 -1.202737987468733465e-03 -4.179061255196758230e-03 -5.744283107515246907e-03 8.432861693036140457e-03 -1.216258404155247445e-04 1.838211014258859383e-02 1.506990979446258625e-03 -2.423354519996041574e-04 -5.173269405098052630e-03 -1.050694434436941655e-04 9.307563674067560917e-04 -1.019416504697080500e-04 3.316399888897768149e-03 5.385649998030600169e-03 9.097434653384981265e-03 7.895674213525473873e-04 -3.701431289318349045e-03 1.226160865893039355e-03 -9.596297890356940245e-04 3.692660762160696920e-03 -1.953730254153505843e-03 -2.020606725654245511e-02 7.653058003354083413e-03 3.738578791439992749e-02 -4.280514755175403134e-03 2.784409320553568774e-03 8.893109758369951642e-03 -6.795233433441251122e-03 4.290286070458501806e-03 1.396793725692036491e-02 7.274930153110863379e-04 2.891902213919779189e-06 -1.173169061245738463e-03 7.291743136077432578e-04 2.774736175756628616e-06 -1.154481552286131928e-03 1.599715231978164273e-02 -5.882574415538897351e-03 -4.467859428358847418e-02 8.802085898650181470e-03 -2.044042741203280431e-02 1.534671158074915262e-02 -4.838676840569501028e-04 -4.497144282839533880e-02 -1.094589191046235928e-02 -1.325207270106452256e-02 -5.591318235730607412e-03 -3.963973557674620868e-03 -4.879099321141819323e-03 1.146415366437268570e-03 -1.862726611954462069e-02 0.000000000000000000e+00 0.000000000000000000e+00 0.000000000000000000e+00 -1.601068620636754573e-15 1.049601782378306777e-15 0.000000000000000000e+00 1.412950991130904567e-16 5.583470057947367729e-16 0.000000000000000000e+00 4.134865165727628889e-15 -3.093413688645025822e-16 -4.864874736507277755e-16 0.000000000000000000e+00 0.000000000000000000e+00 0.000000000000000000e+00 0.000000000000000000e+00 -8.068152574793831492e-16 -4.954523115142512578e-15 0.000000000000000000e+00 7.913678971294176633e-15 5.408036120376602790e-14 4.134865165727628889e-15 -3.093413688645025822e-16 -4.864874736507277755e-16 0.000000000000000000e+00 -3.840249354720128076e-15 -5.481099275411400423e-15 0.000000000000000000e+00 1.953949157359888721e-15 -5.329598893396732376e-15 0.000000000000000000e+00 7.455380860735291640e-15 5.433740976763144473e-14 4.134865165727628889e-15 -3.093413688645025822e-16 -4.864874736507277755e-16 0.000000000000000000e+00 0.000000000000000000e+00 0.000000000000000000e+00 0.000000000000000000e+00 -6.535870145606453599e-15 -8.103906772562715789e-15 0.000000000000000000e+00 3.116025898625894449e-15 2.778105983626395897e-14 4.134865165727628889e-15 -3.093413688645025822e-16 -4.864874736507277755e-16 0.000000000000000000e+00 0.000000000000000000e+00 0.000000000000000000e+00 0.000000000000000000e+00 -1.296449137631688645e-15 -2.357748074024404334e-15 0.000000000000000000e+00 -2.418022604902136005e-15 7.270044141171431763e-15 1.116686584140389425e-02 -2.545782990018018166e-02 -3.621986610131492507e-02 7.373347212792541114e-03 1.084703400687259643e-02 -1.284363953557510728e-02 1.790729916541362876e-02 -1.347537217397532482e-02 1.838808198805296640e-02 5.208999428355369152e-03 3.398918717624366259e-02 1.051628331541422379e-02 0.000000000000000000e+00 0.000000000000000000e+00 0.000000000000000000e+00 -6.284937527877024016e-16 -4.140904098619542274e-15 0.000000000000000000e+00 3.026360352548128473e-15 2.156545146072511911e-16 0.000000000000000000e+00 -2.041783493775455141e-15 4.504678332205744399e-16 -2.032773684950172807e-16 0.000000000000000000e+00 0.000000000000000000e+00 0.000000000000000000e+00 0.000000000000000000e+00 9.142700412593453951e-16 -6.584551250317706479e-15 0.000000000000000000e+00 2.159887378435591555e-15 -6.025536884952357000e-15 -2.041783493775455141e-15 4.504678332205744399e-16 -2.032773684950172807e-16 0.000000000000000000e+00 2.859049857091410095e-15 -2.141109187001693078e-15 0.000000000000000000e+00 -6.373718557576586978e-16 -2.978890578182614820e-15 0.000000000000000000e+00 1.756754574036107933e-16 -2.737239890628484598e-15 -2.041783493775455141e-15 4.504678332205744399e-16 -2.032773684950172807e-16 0.000000000000000000e+00 0.000000000000000000e+00 0.000000000000000000e+00 0.000000000000000000e+00 9.055132563659150500e-17 -5.754085808277967478e-15 0.000000000000000000e+00 -1.167992853047722202e-16 -5.313447943558309329e-15 -2.041783493775455141e-15 4.504678332205744399e-16 -2.032773684950172807e-16 0.000000000000000000e+00 0.000000000000000000e+00 0.000000000000000000e+00 0.000000000000000000e+00 1.891934427940271505e-15 -7.202392227835224140e-16 0.000000000000000000e+00 -1.330599820139026479e-15 -4.371181608828259804e-15
